<mxfile host="app.diagrams.net" modified="2023-06-12T07:18:26.138Z" agent="Mozilla/5.0 (Macintosh; Intel Mac OS X 10_15_7) AppleWebKit/537.36 (KHTML, like Gecko) Chrome/114.0.0.0 Safari/537.36" etag="uQ-euRO92PsTGMS1KFVW" version="21.3.8" type="github">
  <diagram name="Page-1" id="wgitpYxdN2pJxEHEpN96">
    <mxGraphModel dx="1434" dy="796" grid="1" gridSize="10" guides="1" tooltips="1" connect="1" arrows="1" fold="1" page="1" pageScale="1" pageWidth="827" pageHeight="1169" math="0" shadow="0">
      <root>
        <mxCell id="0" />
        <mxCell id="1" parent="0" />
        <mxCell id="B_j3EpdOJUqCfYxPoUQe-1" value="&lt;b&gt;сад с деревьями&lt;/b&gt;" style="ellipse;whiteSpace=wrap;html=1;" vertex="1" parent="1">
          <mxGeometry x="10" y="150" width="150" height="130" as="geometry" />
        </mxCell>
        <mxCell id="B_j3EpdOJUqCfYxPoUQe-2" value="человечек А" style="shape=umlActor;verticalLabelPosition=bottom;verticalAlign=top;html=1;outlineConnect=0;" vertex="1" parent="1">
          <mxGeometry x="460" y="170" width="30" height="60" as="geometry" />
        </mxCell>
        <mxCell id="B_j3EpdOJUqCfYxPoUQe-5" value="человечек B" style="shape=umlActor;verticalLabelPosition=bottom;verticalAlign=top;html=1;outlineConnect=0;" vertex="1" parent="1">
          <mxGeometry x="600" y="170" width="30" height="60" as="geometry" />
        </mxCell>
        <mxCell id="B_j3EpdOJUqCfYxPoUQe-7" value="все деревья в этом саду являются березами" style="ellipse;whiteSpace=wrap;html=1;" vertex="1" parent="1">
          <mxGeometry x="340" y="70" width="120" height="70" as="geometry" />
        </mxCell>
        <mxCell id="B_j3EpdOJUqCfYxPoUQe-8" value="" style="ellipse;whiteSpace=wrap;html=1;" vertex="1" parent="1">
          <mxGeometry x="440" y="140" width="10" height="10" as="geometry" />
        </mxCell>
        <mxCell id="B_j3EpdOJUqCfYxPoUQe-9" value="" style="ellipse;whiteSpace=wrap;html=1;" vertex="1" parent="1">
          <mxGeometry x="450" y="150" width="10" height="10" as="geometry" />
        </mxCell>
        <mxCell id="B_j3EpdOJUqCfYxPoUQe-10" value="все деревья в этом саду являются соснами" style="ellipse;whiteSpace=wrap;html=1;" vertex="1" parent="1">
          <mxGeometry x="630" y="70" width="120" height="70" as="geometry" />
        </mxCell>
        <mxCell id="B_j3EpdOJUqCfYxPoUQe-11" value="" style="ellipse;whiteSpace=wrap;html=1;" vertex="1" parent="1">
          <mxGeometry x="620" y="150" width="10" height="10" as="geometry" />
        </mxCell>
        <mxCell id="B_j3EpdOJUqCfYxPoUQe-12" value="" style="ellipse;whiteSpace=wrap;html=1;" vertex="1" parent="1">
          <mxGeometry x="630" y="140" width="10" height="10" as="geometry" />
        </mxCell>
        <mxCell id="B_j3EpdOJUqCfYxPoUQe-17" value="&lt;font style=&quot;font-size: 16px;&quot;&gt;1)&lt;/font&gt;" style="text;html=1;strokeColor=none;fillColor=none;align=center;verticalAlign=middle;whiteSpace=wrap;rounded=0;" vertex="1" parent="1">
          <mxGeometry x="10" y="130" width="60" height="30" as="geometry" />
        </mxCell>
        <mxCell id="B_j3EpdOJUqCfYxPoUQe-18" value="&lt;b style=&quot;&quot;&gt;&lt;u style=&quot;&quot;&gt;Про законы противоречия и исключенного третьего&lt;/u&gt;&lt;/b&gt;" style="text;html=1;align=center;verticalAlign=middle;resizable=0;points=[];autosize=1;strokeColor=none;fillColor=none;" vertex="1" parent="1">
          <mxGeometry x="30" y="10" width="340" height="30" as="geometry" />
        </mxCell>
        <mxCell id="B_j3EpdOJUqCfYxPoUQe-19" value="" style="endArrow=classic;html=1;rounded=0;fillColor=#e51400;strokeColor=#B20000;" edge="1" parent="1">
          <mxGeometry width="50" height="50" relative="1" as="geometry">
            <mxPoint x="330" y="120" as="sourcePoint" />
            <mxPoint x="130" y="200" as="targetPoint" />
          </mxGeometry>
        </mxCell>
        <mxCell id="B_j3EpdOJUqCfYxPoUQe-20" value="" style="endArrow=classic;html=1;rounded=0;fillColor=#e51400;strokeColor=#B20000;exitX=0.5;exitY=1;exitDx=0;exitDy=0;" edge="1" parent="1" source="B_j3EpdOJUqCfYxPoUQe-10">
          <mxGeometry width="50" height="50" relative="1" as="geometry">
            <mxPoint x="640" y="150" as="sourcePoint" />
            <mxPoint x="130" y="190" as="targetPoint" />
            <Array as="points">
              <mxPoint x="690" y="280" />
              <mxPoint x="360" y="280" />
              <mxPoint x="130" y="280" />
            </Array>
          </mxGeometry>
        </mxCell>
        <mxCell id="B_j3EpdOJUqCfYxPoUQe-48" value="какое-то дерево 2" style="text;html=1;strokeColor=#B09500;fillColor=#e3c800;align=center;verticalAlign=middle;whiteSpace=wrap;rounded=0;fontColor=#000000;fontSize=10;" vertex="1" parent="1">
          <mxGeometry x="55" y="160" width="60" height="30" as="geometry" />
        </mxCell>
        <mxCell id="B_j3EpdOJUqCfYxPoUQe-49" value="&lt;font style=&quot;font-size: 10px;&quot;&gt;какое-то дерево 3&lt;/font&gt;" style="text;html=1;strokeColor=#3A5431;fillColor=#6d8764;align=center;verticalAlign=middle;whiteSpace=wrap;rounded=0;fontColor=#ffffff;" vertex="1" parent="1">
          <mxGeometry x="100" y="230" width="60" height="30" as="geometry" />
        </mxCell>
        <mxCell id="B_j3EpdOJUqCfYxPoUQe-52" value="какое-то &lt;br&gt;дерево" style="text;html=1;align=center;verticalAlign=middle;resizable=0;points=[];autosize=1;strokeColor=#6D1F00;fillColor=#a0522d;fontColor=#ffffff;fontSize=10;" vertex="1" parent="1">
          <mxGeometry x="30" y="230" width="70" height="40" as="geometry" />
        </mxCell>
      </root>
    </mxGraphModel>
  </diagram>
</mxfile>
